# xmcd CD database file
#
# Track frame offsets:
#	150
#	23940
#	49425
#	70526
#	97718
#	115330
#	136004
#	166732
#	182990
#	202843
#	227713
#	246011
#
# Disc length: 3651 seconds
#
# Revision: 1
# Processed by: cddbd v1.4PL0 Copyright (c) Steve Scherf et al.
# Submitted via: CDex 1.50beta9
#
DISCID=940e410c
DTITLE=Rolf Wikström - Blues
DYEAR=2003
DGENRE=Blues
TTITLE0=Har kommit för långt
TTITLE1=Du säjer du ska lämna mig
TTITLE2=Lyckan kommer, lyckan går
TTITLE3=Kallnat kaffe
TTITLE4=Sverige, åh mitt Sverige (Shelter)
TTITLE5=Jag ska berätta för min mamma
TTITLE6=Nere i skiten
TTITLE7=Måste hitta min tjej ikväll 
TTITLE8=Som jag älskar dej
TTITLE9=Du är så förändrad
TTITLE10=Sverige, åh mitt Sverige (New Orleans)
TTITLE11=Bidar min tid
EXTD=YEAR: 2003
EXTT0=
EXTT1=
EXTT2=
EXTT3=
EXTT4=
EXTT5=
EXTT6=
EXTT7=
EXTT8=
EXTT9=
EXTT10=
EXTT11=
PLAYORDER=
